<svg width="63" height="62" viewBox="0 0 63 62" fill="none" xmlns="http://www.w3.org/2000/svg">
<path d="M46.1962 17.7831C46.1278 19.7571 45.9409 21.0382 45.9409 21.0382C49.7875 21.0382 49.4717 30.3999 44.6571 30.3999C43.7026 33.2724 41.9829 35.8305 39.6829 37.799C37.4049 39.7514 34.4999 40.8187 31.4994 40.8056C23.5405 40.8056 19.4145 33.8704 18.3417 30.4033C13.5282 30.4033 13.2113 21.0416 17.0579 21.0416C17.0579 21.0416 16.8721 19.7606 16.8025 17.7866M20.2319 42.9221L3.21842 52.1619C2.56855 52.6077 2.03883 53.2071 1.67627 53.9067C1.31371 54.6064 1.12952 55.3847 1.14005 56.1726C1.09154 57.3664 1.51855 58.5308 2.32747 59.4104C3.13638 60.29 4.26119 60.813 5.45527 60.8648H57.5435C58.737 60.813 59.8612 60.2904 60.6701 59.4116C61.4789 58.5327 61.9063 57.3692 61.8587 56.176C61.8689 55.3882 61.6845 54.6101 61.3217 53.9106C60.959 53.2112 60.4291 52.6121 59.7792 52.1664L42.768 42.9232C33.5322 49.9485 28.6104 49.7126 20.2296 42.9232M20.2296 42.9232C22.1997 41.6262 23.3159 37.8036 23.3159 37.8036L20.2296 42.9232ZM39.6841 37.8024C39.6841 37.8024 40.8002 41.6251 42.7703 42.9221L39.6841 37.8024Z" stroke="#11807F" stroke-width="2" stroke-linecap="round" stroke-linejoin="round"/>
<path d="M27.7896 18.8112C37.8827 15.9744 39.0981 12.586 41.7054 6.72439C42.8649 13.1707 43.5604 18.8158 49.1274 18.8158C49.1274 18.8158 49.1274 1.14429 31.4994 1.14429C13.8714 1.14429 13.8725 19.7412 13.8725 19.7412C20.151 18.932 23.854 16.485 27.7896 12.3011V18.8112Z" fill="#20C5BA" stroke="#20C5BA" stroke-width="2" stroke-linecap="round" stroke-linejoin="round"/>
<path d="M13.8714 20.7202V18.7622C13.8714 9.03004 19.7485 1.13971 31.5005 1.13971C43.2525 1.13971 49.1285 9.03004 49.1285 18.7622V22.6805M12.7279 24.6363C12.7279 34.3696 17.9894 42.2588 24.4799 42.2588" stroke="#11807F" stroke-width="2"/>
<path d="M49.4512 19.3605C50.2615 19.5241 50.9775 19.9938 51.45 20.6719C51.9225 21.35 52.1152 22.1842 51.9879 23.0008L51.2685 29.4779C51.2475 29.8801 51.1457 30.274 50.9694 30.6362C50.793 30.9984 50.5456 31.3214 50.2418 31.586C49.938 31.8507 49.5841 32.0516 49.2011 32.1767C48.8181 32.3019 48.4139 32.3488 48.0124 32.3146L47.9052 32.2998C47.0948 32.1365 46.3786 31.6668 45.9061 30.9886C45.4335 30.3105 45.2409 29.4761 45.3685 28.6595L46.0879 22.1825C46.109 21.7802 46.2107 21.3863 46.3871 21.0241C46.5634 20.6619 46.8109 20.3389 47.1146 20.0743C47.4184 19.8096 47.7723 19.6087 48.1553 19.4836C48.5383 19.3584 48.9425 19.3115 49.344 19.3457L49.4637 18.2664L49.344 19.3457L49.4512 19.3605ZM13.7346 19.3457L13.6149 18.2664L13.7346 19.3457C14.1364 19.3109 14.5412 19.3573 14.9247 19.4822C15.3082 19.607 15.6627 19.8078 15.9669 20.0725C16.2712 20.3372 16.5191 20.6605 16.6957 21.0229C16.8724 21.3854 16.9742 21.7798 16.9952 22.1825L17.7146 28.6595C17.8424 29.4773 17.649 30.3127 17.175 30.9913C16.701 31.6699 15.983 32.1392 15.1711 32.301L15.0639 32.3158C14.6624 32.3499 14.2582 32.303 13.8752 32.1779C13.4922 32.0527 13.1383 31.8518 12.8345 31.5872C12.5308 31.3225 12.2833 30.9995 12.107 30.6374C11.9306 30.2752 11.8289 29.8813 11.8078 29.479L11.0896 23.0008C10.9623 22.1841 11.1551 21.3497 11.6279 20.6716C12.1006 19.9935 12.8169 19.5238 13.6274 19.3605L13.7346 19.3457Z" fill="#7CE8DD"/>
<path d="M28.9775 37.7466H27.484C25.5951 37.7466 24.0638 39.2774 24.0638 41.1658V41.8257C24.0638 43.714 25.5951 45.2448 27.484 45.2448H28.9775C30.8665 45.2448 32.3978 43.714 32.3978 41.8257V41.1658C32.3978 39.2774 30.8665 37.7466 28.9775 37.7466Z" fill="#7CE8DD"/>
<path d="M28.9775 38.8863H27.484C26.2247 38.8863 25.2038 39.9068 25.2038 41.1657V41.8256C25.2038 43.0846 26.2247 44.1051 27.484 44.1051H28.9775C30.2368 44.1051 31.2577 43.0846 31.2577 41.8256V41.1657C31.2577 39.9068 30.2368 38.8863 28.9775 38.8863Z" stroke="#11807F" stroke-width="2"/>
<path d="M22.9077 24.7811C22.9077 24.7811 22.9898 22.3193 25.1149 22.3193C27.24 22.3193 27.4293 24.7811 27.4293 24.7811" stroke="#11807F" stroke-width="2" stroke-linecap="round" stroke-linejoin="round"/>
<path d="M36.0643 24.7811C36.0643 24.7811 36.1464 22.3193 38.2715 22.3193C40.3967 22.3193 40.5859 24.7811 40.5859 24.7811" stroke="#11807F" stroke-width="2" stroke-linecap="round" stroke-linejoin="round"/>
</svg>
