<svg width="60" height="62" viewBox="0 0 60 62" fill="none" xmlns="http://www.w3.org/2000/svg">
<path d="M58.3903 29.1728L32.9004 45.6746C30.9764 46.9202 28.5006 46.9202 26.5766 45.6746L1.08682 29.1725C0.970445 29.4542 0.908203 29.7615 0.908203 30.0766V58.8391C0.908203 60.0834 1.85964 61.0919 3.03316 61.0919H56.444C57.6176 61.0919 58.5689 60.0834 58.5689 58.8391V30.0766C58.5689 29.7617 58.5067 29.4545 58.3903 29.1728Z" fill="#7CE8DD"/>
<path d="M58.389 27.6505L54.4557 24.2263V14.4534C54.4557 12.911 53.8551 11.4611 52.7645 10.3704L44.0854 1.6912C42.9947 0.600626 41.5447 0 40.0023 0H10.7959C7.61197 0 5.02153 2.59032 5.02153 5.77437V9.97645C5.02153 10.478 5.42816 10.8847 5.92973 10.8847C6.4313 10.8847 6.83794 10.478 6.83794 9.97645V5.77437C6.83794 3.59189 8.61354 1.81641 10.7959 1.81641H40.0023C40.3825 1.81641 40.7543 1.87054 41.1097 1.97347V10.6134C41.1097 12.3469 42.52 13.7571 44.2534 13.7571H52.5774C52.6176 13.9848 52.6393 14.2174 52.6393 14.4534V31.8141L32.4069 44.9123C30.8075 45.9478 28.7127 45.9755 27.0703 44.9123L6.83794 31.8138V14.3827C6.83794 13.8811 6.4313 13.4745 5.92973 13.4745C5.42816 13.4745 5.02153 13.8811 5.02153 14.3827V24.2263L1.08827 27.6505C0.464759 28.1933 0 29.0645 0 30.0765V58.839C0 60.5695 1.34923 62 3.03328 62H56.444C58.1165 62 59.4771 60.582 59.4771 58.839V30.0766C59.4773 29.069 59.0131 28.194 58.389 27.6505ZM44.2534 11.9407C43.5215 11.9407 42.9261 11.3453 42.9261 10.6134V3.10073L51.4801 11.6547C51.5718 11.7464 51.6582 11.8419 51.7397 11.9406L44.2534 11.9407ZM54.4557 26.6346L57.0932 28.9307L54.4557 30.6381V26.6346ZM1.81677 58.8456C1.81677 58.8434 1.81641 58.8413 1.81641 58.8391V30.7268L22.0116 43.801L1.81677 58.8456ZM5.02153 30.6379L2.38434 28.9306L5.02153 26.6346V30.6379ZM3.06101 60.1837L23.6384 44.8542L26.0833 46.437C28.3246 47.8881 31.197 47.8595 33.3941 46.437L35.8087 44.8738L42.5817 49.8694C42.9879 50.1691 43.5559 50.0787 43.8516 49.6776C44.1494 49.274 44.0636 48.7053 43.6598 48.4077L37.4383 43.8188L57.6607 30.727V58.7341L47.0872 50.9355C46.6836 50.6377 46.115 50.7236 45.8172 51.1273C45.5195 51.5311 45.6053 52.0996 46.0091 52.3972L56.5574 60.1773C56.52 60.1812 56.4822 60.1836 56.444 60.1836L3.06101 60.1837Z" fill="#11807F"/>
<path d="M42.1887 23.8018C42.1887 16.921 36.6203 11.3518 29.7387 11.3518C22.858 11.3518 17.2886 16.9201 17.2886 23.8018C17.2886 30.6825 22.8569 36.2519 29.7387 36.2519C36.6195 36.2519 42.1887 30.6836 42.1887 23.8018ZM29.7387 13.1732C35.594 13.1732 40.3723 17.9006 40.3723 23.8018C40.3723 31.5343 32.351 36.6985 25.2954 33.4624L25.7094 33.0483C28.7411 30.0169 31.4235 32.3415 34.705 29.0597C36.4593 27.3055 37.1873 24.8101 36.6522 22.3844C36.3775 21.1396 34.8284 20.6868 33.9248 21.5905L30.8112 24.7041C30.6084 24.9069 30.2798 24.9069 30.077 24.7041L28.8363 23.4634C28.6334 23.2606 28.6334 22.9321 28.8363 22.7293L31.9498 19.6157C32.8513 18.7144 32.4042 17.1637 31.156 16.8883C28.73 16.3532 26.2348 17.0812 24.4806 18.8355C21.2255 22.0907 23.5006 24.8227 20.4921 27.8311L20.0751 28.2482C19.4408 26.8716 19.1049 25.3629 19.1049 23.802C19.105 17.8995 23.8844 13.1732 29.7387 13.1732ZM21.0131 29.8789L21.7766 29.1153C25.2898 25.6023 23.1064 22.7787 25.7652 20.1197C26.9915 18.8934 28.7024 18.3367 30.4023 18.5946L27.5521 21.4447C26.6394 22.3573 26.6391 23.8349 27.5521 24.7476L28.7928 25.9883C29.7054 26.901 31.183 26.9012 32.0958 25.9883L34.946 23.1381C35.2036 24.8384 34.6472 26.5487 33.4208 27.7751C30.7268 30.4692 27.9898 28.199 24.4252 31.7636L23.663 32.5258C22.6406 31.8134 21.7626 30.9503 21.0131 29.8789Z" fill="#11807F"/>
</svg>
